<?xml version="1.0" encoding="UTF-8"?>
<!DOCTYPE svg PUBLIC "-//W3C//DTD SVG 1.1//EN" "http://www.w3.org/Graphics/SVG/1.1/DTD/svg11.dtd">
<svg xmlns="http://www.w3.org/2000/svg" version="1.1" width="512px" height="512px" style="shape-rendering:geometricPrecision; text-rendering:geometricPrecision; image-rendering:optimizeQuality; fill-rule:evenodd; clip-rule:evenodd" xmlns:xlink="http://www.w3.org/1999/xlink">
<g><path style="opacity:0.967" fill="#fd90aa" d="M 269.5,18.5 C 187.092,66.8992 104.426,114.899 21.5,162.5C 18.0026,159.917 14.3359,157.584 10.5,155.5C 92.7073,107.141 175.207,59.1412 258,11.5C 262.131,13.4757 265.964,15.8091 269.5,18.5 Z"/></g>
<g><path style="opacity:0.969" fill="#fd91ab" d="M 321.5,18.5 C 301.5,30.1667 281.5,41.8333 261.5,53.5C 258.039,50.9308 254.372,48.5974 250.5,46.5C 256.181,43.3272 261.514,39.6605 266.5,35.5C 268.38,35.7709 269.713,35.1042 270.5,33.5C 283.241,26.0451 296.074,18.7118 309,11.5C 313.324,13.6807 317.49,16.014 321.5,18.5 Z"/></g>
<g><path style="opacity:1" fill="#ec5d71" d="M 269.5,18.5 C 270.487,23.3054 270.821,28.3054 270.5,33.5C 269.713,35.1042 268.38,35.7709 266.5,35.5C 264.067,34.6715 261.733,35.1715 259.5,37C 184.279,81.0604 108.946,124.894 33.5,168.5C 32.8826,168.611 32.3826,168.944 32,169.5C 31.1681,226.001 31.3348,282.335 32.5,338.5C 33.9434,351.552 39.2767,362.719 48.5,372C 51.1393,374.483 54.1393,376.316 57.5,377.5C 55.2215,379.263 52.5548,380.263 49.5,380.5C 35.7469,375.911 26.9136,366.578 23,352.5C 21.5219,289.199 21.0219,225.865 21.5,162.5C 104.426,114.899 187.092,66.8992 269.5,18.5 Z"/></g>
<g><path style="opacity:1" fill="#fefdfd" d="M 266.5,35.5 C 261.514,39.6605 256.181,43.3272 250.5,46.5C 241.664,60.8338 233.331,75.5005 225.5,90.5C 170.967,121.929 116.634,153.596 62.5,185.5C 62.1667,185.5 61.8333,185.5 61.5,185.5C 52.1667,180.5 42.8333,175.5 33.5,170.5C 33.5,169.833 33.5,169.167 33.5,168.5C 108.946,124.894 184.279,81.0604 259.5,37C 261.733,35.1715 264.067,34.6715 266.5,35.5 Z"/></g>
<g><path style="opacity:1" fill="#d3394f" d="M 250.5,46.5 C 254.372,48.5974 258.039,50.9308 261.5,53.5C 253.759,66.6442 246.259,79.9775 239,93.5C 238.241,95.0629 237.074,96.0629 235.5,96.5C 232.131,94.4854 228.798,92.4854 225.5,90.5C 233.331,75.5005 241.664,60.8338 250.5,46.5 Z"/></g>
<g><path style="opacity:0.999" fill="#ed5d71" d="M 321.5,18.5 C 321.5,38.1667 321.5,57.8333 321.5,77.5C 321.063,79.0744 320.063,80.2411 318.5,81C 245.776,122.689 173.442,164.855 101.5,207.5C 99.5041,262.49 98.8375,317.823 99.5,373.5C 89.0722,379.928 78.4055,385.928 67.5,391.5C 70.1393,387.21 71.9726,382.544 73,377.5C 73.8292,315.43 73.6625,253.43 72.5,191.5C 75.0163,191.245 77.3496,190.411 79.5,189C 131.003,158.748 182.67,128.748 234.5,99C 235.252,98.3292 235.586,97.4959 235.5,96.5C 237.074,96.0629 238.241,95.0629 239,93.5C 246.259,79.9775 253.759,66.6442 261.5,53.5C 281.5,41.8333 301.5,30.1667 321.5,18.5 Z"/></g>
<g><path style="opacity:0.995" fill="#fedb93" d="M 360.5,70.5 C 277.903,117.775 195.57,165.442 113.5,213.5C 112.833,213.5 112.167,213.5 111.5,213.5C 107.799,211.988 104.466,209.988 101.5,207.5C 173.442,164.855 245.776,122.689 318.5,81C 320.063,80.2411 321.063,79.0744 321.5,77.5C 330.15,72.8413 338.816,68.1746 347.5,63.5C 352.101,65.4575 356.434,67.7908 360.5,70.5 Z"/></g>
<g><path style="opacity:0.968" fill="#fedc94" d="M 411.5,70.5 C 391.754,82.3705 371.754,93.7038 351.5,104.5C 347.993,102.246 344.327,100.246 340.5,98.5C 345.996,94.5842 351.663,90.9175 357.5,87.5C 359.027,87.573 360.027,86.9063 360.5,85.5C 372.806,78.345 385.139,71.1783 397.5,64C 402.733,64.7811 407.4,66.9478 411.5,70.5 Z"/></g>
<g><path style="opacity:0.998" fill="#fdbb62" d="M 360.5,70.5 C 360.5,75.5 360.5,80.5 360.5,85.5C 360.027,86.9063 359.027,87.573 357.5,87.5C 355.932,86.5269 354.265,86.3603 352.5,87C 275.606,131.608 198.939,176.441 122.5,221.5C 121.335,278.332 121.168,335.332 122,392.5C 125.107,408.765 133.607,421.098 147.5,429.5C 139.846,432.929 132.846,431.762 126.5,426C 118.645,418.458 113.812,409.292 112,398.5C 111.5,387.505 111.333,376.505 111.5,365.5C 112.171,314.931 112.838,264.264 113.5,213.5C 195.57,165.442 277.903,117.775 360.5,70.5 Z"/></g>
<g><path style="opacity:1" fill="#fffefd" d="M 357.5,87.5 C 351.663,90.9175 345.996,94.5842 340.5,98.5C 331.664,112.834 323.331,127.5 315.5,142.5C 260.667,173.413 206.333,205.08 152.5,237.5C 151.833,237.5 151.5,237.833 151.5,238.5C 141.633,233.071 131.967,227.404 122.5,221.5C 198.939,176.441 275.606,131.608 352.5,87C 354.265,86.3603 355.932,86.5269 357.5,87.5 Z"/></g>
<g><path style="opacity:1" fill="#fd91ab" d="M 225.5,90.5 C 228.798,92.4854 232.131,94.4854 235.5,96.5C 235.586,97.4959 235.252,98.3292 234.5,99C 182.67,128.748 131.003,158.748 79.5,189C 77.3496,190.411 75.0163,191.245 72.5,191.5C 68.7991,189.988 65.4658,187.988 62.5,185.5C 116.634,153.596 170.967,121.929 225.5,90.5 Z"/></g>
<g><path style="opacity:1" fill="#efa245" d="M 340.5,98.5 C 344.327,100.246 347.993,102.246 351.5,104.5C 343.669,119.5 335.336,134.166 326.5,148.5C 322.673,146.754 319.007,144.754 315.5,142.5C 323.331,127.5 331.664,112.834 340.5,98.5 Z"/></g>
<g><path style="opacity:0.998" fill="#fcba62" d="M 411.5,70.5 C 411.5,90.1667 411.5,109.833 411.5,129.5C 407.742,132.557 403.742,135.39 399.5,138C 329.665,178.363 259.998,218.863 190.5,259.5C 190.829,314.905 190.496,370.238 189.5,425.5C 178.833,431.5 168.167,437.5 157.5,443.5C 157.062,443.565 156.728,443.399 156.5,443C 160.399,438.979 162.566,434.145 163,428.5C 163.829,366.763 163.662,305.096 162.5,243.5C 217.786,212.859 272.452,181.192 326.5,148.5C 335.336,134.166 343.669,119.5 351.5,104.5C 371.754,93.7038 391.754,82.3705 411.5,70.5 Z"/></g>
<g><path style="opacity:0.995" fill="#7caef9" d="M 450.5,122.5 C 367.973,170.35 285.473,218.35 203,266.5C 202.833,317.002 202.333,367.335 201.5,417.5C 201.833,366.829 201.5,316.162 200.5,265.5C 197.139,263.489 193.806,261.489 190.5,259.5C 259.998,218.863 329.665,178.363 399.5,138C 403.742,135.39 407.742,132.557 411.5,129.5C 420.522,124.904 429.355,119.904 438,114.5C 442.316,117.066 446.483,119.733 450.5,122.5 Z"/></g>
<g><path style="opacity:0.972" fill="#7bb1fe" d="M 501.5,122.5 C 481.473,133.845 461.473,145.179 441.5,156.5C 438.001,154.25 434.335,152.25 430.5,150.5C 435.996,146.584 441.663,142.918 447.5,139.5C 448.778,139.218 449.778,138.551 450.5,137.5C 463.223,129.719 476.056,122.052 489,114.5C 493.609,116.635 497.776,119.302 501.5,122.5 Z"/></g>
<g><path style="opacity:0.999" fill="#5893fa" d="M 450.5,122.5 C 450.5,127.5 450.5,132.5 450.5,137.5C 449.778,138.551 448.778,139.218 447.5,139.5C 445.119,138.17 442.786,138.336 440.5,140C 364.636,184.431 288.636,228.597 212.5,272.5C 211.335,329.665 211.168,386.999 212,444.5C 215.648,459.953 223.814,472.286 236.5,481.5C 236.082,482.222 235.416,482.722 234.5,483C 227.19,484.183 220.857,482.183 215.5,477C 208.229,469.625 203.729,460.791 202,450.5C 201.5,439.505 201.333,428.505 201.5,417.5C 202.333,367.335 202.833,317.002 203,266.5C 285.473,218.35 367.973,170.35 450.5,122.5 Z"/></g>
<g><path style="opacity:1" fill="#fdfdfe" d="M 447.5,139.5 C 441.663,142.918 435.996,146.584 430.5,150.5C 421.929,164.634 413.596,178.967 405.5,193.5C 350.798,225.515 296.131,257.515 241.5,289.5C 231.633,284.071 221.967,278.404 212.5,272.5C 288.636,228.597 364.636,184.431 440.5,140C 442.786,138.336 445.119,138.17 447.5,139.5 Z"/></g>
<g><path style="opacity:1" fill="#ffdc94" d="M 315.5,142.5 C 319.007,144.754 322.673,146.754 326.5,148.5C 272.452,181.192 217.786,212.859 162.5,243.5C 159.131,241.485 155.798,239.485 152.5,237.5C 206.333,205.08 260.667,173.413 315.5,142.5 Z"/></g>
<g><path style="opacity:1" fill="#3c55d0" d="M 430.5,150.5 C 434.335,152.25 438.001,154.25 441.5,156.5C 433.669,171.5 425.336,186.166 416.5,200.5C 412.628,198.403 408.961,196.069 405.5,193.5C 413.596,178.967 421.929,164.634 430.5,150.5 Z"/></g>
<g><path style="opacity:0.997" fill="#5793fa" d="M 501.5,122.5 C 501.667,194.167 501.5,265.834 501,337.5C 500.509,342.31 498.842,346.644 496,350.5C 413.188,399.488 330.021,447.821 246.5,495.5C 250.282,491.263 252.448,486.263 253,480.5C 253.5,418.834 253.667,357.168 253.5,295.5C 308.115,264.197 362.448,232.53 416.5,200.5C 425.336,186.166 433.669,171.5 441.5,156.5C 461.473,145.179 481.473,133.845 501.5,122.5 Z"/></g>
<g><path style="opacity:0.978" fill="#d3374e" d="M 10.5,155.5 C 14.3359,157.584 18.0026,159.917 21.5,162.5C 21.0219,225.865 21.5219,289.199 23,352.5C 26.9136,366.578 35.7469,375.911 49.5,380.5C 52.5548,380.263 55.2215,379.263 57.5,377.5C 59.465,375.232 60.6317,372.565 61,369.5C 61.5,308.168 61.6667,246.834 61.5,185.5C 61.8333,185.5 62.1667,185.5 62.5,185.5C 65.4658,187.988 68.7991,189.988 72.5,191.5C 73.6625,253.43 73.8292,315.43 73,377.5C 71.9726,382.544 70.1393,387.21 67.5,391.5C 60.7941,396.882 53.4607,397.715 45.5,394C 26.2636,383.402 14.4303,367.235 10,345.5C 9.16798,281.999 9.33465,218.665 10.5,155.5 Z"/></g>
<g><path style="opacity:1" fill="#e3e6ef" d="M 33.5,170.5 C 42.8333,175.5 52.1667,180.5 61.5,185.5C 61.6667,246.834 61.5,308.168 61,369.5C 60.6317,372.565 59.465,375.232 57.5,377.5C 54.1393,376.316 51.1393,374.483 48.5,372C 39.2767,362.719 33.9434,351.552 32.5,338.5C 32.1677,282.331 32.501,226.331 33.5,170.5 Z"/></g>
<g><path style="opacity:1" fill="#7cb1fe" d="M 405.5,193.5 C 408.961,196.069 412.628,198.403 416.5,200.5C 362.448,232.53 308.115,264.197 253.5,295.5C 249.5,293.5 245.5,291.5 241.5,289.5C 296.131,257.515 350.798,225.515 405.5,193.5 Z"/></g>
<g><path style="opacity:0.993" fill="#efa044" d="M 101.5,207.5 C 104.466,209.988 107.799,211.988 111.5,213.5C 111.5,264.167 111.5,314.833 111.5,365.5C 111.333,376.505 111.5,387.505 112,398.5C 113.812,409.292 118.645,418.458 126.5,426C 132.846,431.762 139.846,432.929 147.5,429.5C 149.18,427.473 150.347,425.139 151,422.5C 151.5,361.168 151.667,299.834 151.5,238.5C 151.5,237.833 151.833,237.5 152.5,237.5C 155.798,239.485 159.131,241.485 162.5,243.5C 163.662,305.096 163.829,366.763 163,428.5C 162.566,434.145 160.399,438.979 156.5,443C 156.728,443.399 157.062,443.565 157.5,443.5C 149.939,448.294 141.939,448.794 133.5,445C 107.723,428.226 96.3898,404.393 99.5,373.5C 98.8375,317.823 99.5041,262.49 101.5,207.5 Z"/></g>
<g><path style="opacity:1" fill="#e3e6ee" d="M 122.5,221.5 C 131.967,227.404 141.633,233.071 151.5,238.5C 151.667,299.834 151.5,361.168 151,422.5C 150.347,425.139 149.18,427.473 147.5,429.5C 133.607,421.098 125.107,408.765 122,392.5C 121.168,335.332 121.335,278.332 122.5,221.5 Z"/></g>
<g><path style="opacity:1" fill="#f39a58" d="M 111.5,213.5 C 112.167,213.5 112.833,213.5 113.5,213.5C 112.838,264.264 112.171,314.931 111.5,365.5C 111.5,314.833 111.5,264.167 111.5,213.5 Z"/></g>
<g><path style="opacity:0.992" fill="#3a53d0" d="M 190.5,259.5 C 193.806,261.489 197.139,263.489 200.5,265.5C 201.5,316.162 201.833,366.829 201.5,417.5C 201.333,428.505 201.5,439.505 202,450.5C 203.729,460.791 208.229,469.625 215.5,477C 220.857,482.183 227.19,484.183 234.5,483C 235.416,482.722 236.082,482.222 236.5,481.5C 239.012,479.522 240.512,476.855 241,473.5C 241.5,412.168 241.667,350.834 241.5,289.5C 245.5,291.5 249.5,293.5 253.5,295.5C 253.667,357.168 253.5,418.834 253,480.5C 252.448,486.263 250.282,491.263 246.5,495.5C 245.025,497.41 243.025,498.576 240.5,499C 230.601,500.358 221.934,497.692 214.5,491C 195.049,473.489 186.715,451.655 189.5,425.5C 190.496,370.238 190.829,314.905 190.5,259.5 Z"/></g>
<g><path style="opacity:1" fill="#dfe4f0" d="M 480.5,270.5 C 481.811,274.683 481.811,279.016 480.5,283.5C 461.082,294.96 441.582,306.293 422,317.5C 421.172,313.129 421.339,308.795 422.5,304.5C 441.896,293.14 461.23,281.807 480.5,270.5 Z"/></g>
<g><path style="opacity:1" fill="#e1e5f0" d="M 212.5,272.5 C 221.967,278.404 231.633,284.071 241.5,289.5C 241.667,350.834 241.5,412.168 241,473.5C 240.512,476.855 239.012,479.522 236.5,481.5C 223.814,472.286 215.648,459.953 212,444.5C 211.168,386.999 211.335,329.665 212.5,272.5 Z"/></g>
<g><path style="opacity:1" fill="#dfe4f0" d="M 479.5,294.5 C 480.8,296.223 481.467,298.39 481.5,301C 481.167,303.167 480.833,305.333 480.5,307.5C 460.87,318.634 441.37,329.967 422,341.5C 421.172,337.129 421.339,332.795 422.5,328.5C 441.729,317.392 460.729,306.059 479.5,294.5 Z"/></g>
<g><path style="opacity:1" fill="#dfe4f0" d="M 479.5,318.5 C 480.794,320.048 481.461,322.048 481.5,324.5C 481.333,326.5 481.167,328.5 481,330.5C 461.476,342.508 441.642,353.841 421.5,364.5C 421.203,360.233 421.536,356.066 422.5,352C 441.892,341.311 460.892,330.145 479.5,318.5 Z"/></g>
<g><path style="opacity:1" fill="#e5cfda" d="M 33.5,168.5 C 33.5,169.167 33.5,169.833 33.5,170.5C 32.501,226.331 32.1677,282.331 32.5,338.5C 31.3348,282.335 31.1681,226.001 32,169.5C 32.3826,168.944 32.8826,168.611 33.5,168.5 Z"/></g>
</svg>
